<svg width="70" height="140" viewBox="0 0 70 140" fill="none" xmlns="http://www.w3.org/2000/svg">
<g filter="url(#filter0_d_3878_339279)">
<path d="M30.1221 37.908C24.3561 44.604 17.1021 48.138 4.26809 48.696C1.66409 48.696 0.362086 47.394 0.362086 44.976V26.748C0.362086 24.33 1.66409 23.028 4.08209 23.028C20.6361 22.284 30.4941 17.448 36.4461 7.40399C37.5621 5.54399 38.8641 4.79999 40.9101 4.79999H57.0921C59.5101 4.79999 60.8121 6.102 60.8121 8.52V131.28C60.8121 133.698 59.5101 135 57.0921 135H35.8881C33.4701 135 32.1681 133.698 32.1681 131.28V38.466C32.1681 36.792 31.0521 36.792 30.1221 37.908Z" fill="url(#paint0_linear_3878_339279)"/>
</g>
<defs>
<filter id="filter0_d_3878_339279" x="0.362061" y="0.604543" width="68.8405" height="138.591" filterUnits="userSpaceOnUse" color-interpolation-filters="sRGB">
<feFlood flood-opacity="0" result="BackgroundImageFix"/>
<feColorMatrix in="SourceAlpha" type="matrix" values="0 0 0 0 0 0 0 0 0 0 0 0 0 0 0 0 0 0 127 0" result="hardAlpha"/>
<feOffset dx="4.19526"/>
<feGaussianBlur stdDeviation="2.09763"/>
<feComposite in2="hardAlpha" operator="out"/>
<feColorMatrix type="matrix" values="0 0 0 0 0 0 0 0 0 0 0 0 0 0 0 0 0 0 0.5 0"/>
<feBlend mode="normal" in2="BackgroundImageFix" result="effect1_dropShadow_3878_339279"/>
<feBlend mode="normal" in="SourceGraphic" in2="effect1_dropShadow_3878_339279" result="shape"/>
</filter>
<linearGradient id="paint0_linear_3878_339279" x1="-6" y1="45.2381" x2="58.843" y2="84.6558" gradientUnits="userSpaceOnUse">
<stop stop-color="#F1F2F2"/>
<stop offset="1" stop-color="#636768"/>
</linearGradient>
</defs>
</svg>
