<svg width="107" height="143" viewBox="0 0 107 143" fill="none" xmlns="http://www.w3.org/2000/svg">
<g filter="url(#filter0_d_3878_339280)">
<path d="M0.118328 117.354C0.118328 115.494 0.862328 114.006 2.53633 112.89C43.4563 82.944 69.8683 65.088 69.8683 45C69.8683 33.468 62.2423 26.772 50.5243 26.772C39.7363 26.772 32.1103 31.794 29.6923 42.768C29.1343 45 28.0183 46.116 25.7863 46.116H5.51233C3.09433 46.116 1.60633 44.628 1.97833 42.21C5.51233 16.728 24.2983 5.00999 50.5243 5.00999C77.8663 5.00999 98.3263 18.588 98.3263 44.256C98.1403 73.644 67.4503 92.058 35.8303 113.634C34.5283 114.564 34.9003 115.866 36.5743 115.68C45.3163 114.75 53.3143 114.378 65.5903 114.378H92.7463C95.1643 114.378 96.4663 115.68 96.4663 118.098V134.28C96.4663 136.698 95.1643 138 92.7463 138H3.83833C1.42033 138 0.118328 136.698 0.118328 134.28V117.354Z" fill="url(#paint0_linear_3878_339280)"/>
</g>
<defs>
<filter id="filter0_d_3878_339280" x="0.118408" y="0.814504" width="106.599" height="141.381" filterUnits="userSpaceOnUse" color-interpolation-filters="sRGB">
<feFlood flood-opacity="0" result="BackgroundImageFix"/>
<feColorMatrix in="SourceAlpha" type="matrix" values="0 0 0 0 0 0 0 0 0 0 0 0 0 0 0 0 0 0 127 0" result="hardAlpha"/>
<feOffset dx="4.19526"/>
<feGaussianBlur stdDeviation="2.09763"/>
<feComposite in2="hardAlpha" operator="out"/>
<feColorMatrix type="matrix" values="0 0 0 0 0 0 0 0 0 0 0 0 0 0 0 0 0 0 0.5 0"/>
<feBlend mode="normal" in2="BackgroundImageFix" result="effect1_dropShadow_3878_339280"/>
<feBlend mode="normal" in="SourceGraphic" in2="effect1_dropShadow_3878_339280" result="shape"/>
</filter>
<linearGradient id="paint0_linear_3878_339280" x1="-7" y1="48.2381" x2="65.3729" y2="111.411" gradientUnits="userSpaceOnUse">
<stop stop-color="#F1F2F2"/>
<stop offset="1" stop-color="#636768"/>
</linearGradient>
</defs>
</svg>
