<svg width="113" height="146" viewBox="0 0 113 146" fill="none" xmlns="http://www.w3.org/2000/svg">
<g filter="url(#filter0_d_3878_339301)">
<path d="M75.1449 72.9C70.4949 85.734 59.5209 93.546 42.4089 93.546C18.0429 93.546 0.930898 76.992 0.930898 49.836C0.930898 20.262 24.1809 4.824 51.1509 4.824C87.2349 4.824 104.347 29.376 104.347 70.482C104.347 113.82 87.6069 140.976 50.5929 140.976C29.9469 140.976 9.1149 132.234 3.5349 108.798C2.9769 106.194 4.2789 104.706 6.8829 104.706H25.6689C27.7149 104.706 29.0169 105.636 29.7609 107.868C32.7369 115.494 39.2469 119.958 50.5929 119.958C70.3089 119.958 77.5629 104.52 77.9349 73.458C77.9349 71.04 75.8889 70.854 75.1449 72.9ZM27.9009 49.836C27.9009 62.298 36.2709 73.086 50.9649 73.086C65.8449 73.086 74.4009 62.484 74.4009 49.836C74.4009 36.258 65.4729 26.772 51.1509 26.586C36.6429 26.586 27.9009 36.258 27.9009 49.836Z" fill="url(#paint0_linear_3878_339301)"/>
</g>
<defs>
<filter id="filter0_d_3878_339301" x="0.930908" y="0.628957" width="111.807" height="144.542" filterUnits="userSpaceOnUse" color-interpolation-filters="sRGB">
<feFlood flood-opacity="0" result="BackgroundImageFix"/>
<feColorMatrix in="SourceAlpha" type="matrix" values="0 0 0 0 0 0 0 0 0 0 0 0 0 0 0 0 0 0 127 0" result="hardAlpha"/>
<feOffset dx="4.19526"/>
<feGaussianBlur stdDeviation="2.09763"/>
<feComposite in2="hardAlpha" operator="out"/>
<feColorMatrix type="matrix" values="0 0 0 0 0 0 0 0 0 0 0 0 0 0 0 0 0 0 0.5 0"/>
<feBlend mode="normal" in2="BackgroundImageFix" result="effect1_dropShadow_3878_339301"/>
<feBlend mode="normal" in="SourceGraphic" in2="effect1_dropShadow_3878_339301" result="shape"/>
</filter>
<linearGradient id="paint0_linear_3878_339301" x1="-6" y1="48.2381" x2="66.7873" y2="115.176" gradientUnits="userSpaceOnUse">
<stop stop-color="#F1F2F2"/>
<stop offset="1" stop-color="#636768"/>
</linearGradient>
</defs>
</svg>
